HIERARCHY
ROOT Hips
{
	OFFSET -0.001795 -0.223333 0.028219
	CHANNELS 6 Xposition Yposition Zposition Zrotation Yrotation Xrotation 
	JOINT LeftUpLeg
	{
		OFFSET 0.069520 -0.091406 -0.006815
		CHANNELS 3 Zrotation Yrotation Xrotation
		JOINT LeftLeg
		{
			OFFSET 0.034277 -0.375199 -0.004496
			CHANNELS 3 Zrotation Yrotation Xrotation
			JOINT LeftFoot
			{
				OFFSET -0.013596 -0.397961 -0.043693
				CHANNELS 3 Zrotation Yrotation Xrotation
				JOINT LeftToe
				{
					OFFSET 0.026358 -0.055791 0.119288
					CHANNELS 3 Zrotation Yrotation Xrotation
					End Site
					{
						OFFSET 0.000000 0.000000 0.000000
					}
				}
			}
		}
	}
	JOINT RightUpLeg
	{
		OFFSET -0.067670 -0.090522 -0.004320
		CHANNELS 3 Zrotation Yrotation Xrotation
		JOINT RightLeg
		{
			OFFSET -0.038290 -0.382569 -0.008850
			CHANNELS 3 Zrotation Yrotation Xrotation
			JOINT RightFoot
			{
				OFFSET 0.015774 -0.398415 -0.042312
				CHANNELS 3 Zrotation Yrotation Xrotation
				JOINT RightToe
				{
					OFFSET -0.025372 -0.048144 0.123348
					CHANNELS 3 Zrotation Yrotation Xrotation
					End Site
					{
						OFFSET 0.000000 0.000000 0.000000
					}
				}
			}
		}
	}
	JOINT Spine
	{
		OFFSET -0.002533 0.108963 -0.026696
		CHANNELS 3 Zrotation Yrotation Xrotation
		JOINT Spine1
		{
			OFFSET 0.005487 0.135180 0.001092
			CHANNELS 3 Zrotation Yrotation Xrotation
			JOINT Spine2
			{
				OFFSET 0.001457 0.052922 0.025425
				CHANNELS 3 Zrotation Yrotation Xrotation
				JOINT Neck
				{
					OFFSET -0.002778 0.213870 -0.042857
					CHANNELS 3 Zrotation Yrotation Xrotation
					JOINT Head
					{
						OFFSET 0.005152 0.064970 0.051349
						CHANNELS 3 Zrotation Yrotation Xrotation
						End Site
						{
							OFFSET 0.000000 0.000000 0.000000
						}
					}
				}
				JOINT LeftShoulder
				{
					OFFSET 0.078845 0.121749 -0.034090
					CHANNELS 3 Zrotation Yrotation Xrotation
					JOINT LeftArm
					{
						OFFSET 0.090977 0.030469 -0.008868
						CHANNELS 3 Zrotation Yrotation Xrotation
						JOINT LeftForeArm
						{
							OFFSET 0.259612 -0.012772 -0.027456
							CHANNELS 3 Zrotation Yrotation Xrotation
							JOINT LeftHand
							{
								OFFSET 0.249234 0.008986 -0.001171
								CHANNELS 3 Zrotation Yrotation Xrotation
								End Site
								{
									OFFSET 0.000000 0.000000 0.000000
								}
							}
						}
					}
				}
				JOINT RightShoulder
				{
					OFFSET -0.081759 0.118833 -0.038615
					CHANNELS 3 Zrotation Yrotation Xrotation
					JOINT RightArm
					{
						OFFSET -0.096012 0.032551 -0.009143
						CHANNELS 3 Zrotation Yrotation Xrotation
						JOINT RightForeArm
						{
							OFFSET -0.253742 -0.013329 -0.021401
							CHANNELS 3 Zrotation Yrotation Xrotation
							JOINT RightHand
							{
								OFFSET -0.255298 0.007772 -0.005559
								CHANNELS 3 Zrotation Yrotation Xrotation
								End Site
								{
									OFFSET 0.000000 0.000000 0.000000
								}
							}
						}
					}
				}
			}
		}
	}
}
MOTION
Frames: 8
Frame Time: 0.050000
-0.056516 0.947083 -0.057478 -6.277706 5.561848 2.930359 10.741081 -0.363841 -4.352896 -7.674191 0.674679 -1.130128 16.306085 28.573947 19.071820 0.000000 0.000000 0.000000 -10.768000 0.125110 -18.767754 2.730483 -0.255519 12.095155 -8.416170 -19.292713 34.322914 0.000000 0.000000 0.000000 -5.696844 -0.019995 20.903509 8.550276 -1.272807 -25.016046 0.420220 1.058311 29.790739 4.534303 0.012939 -30.242900 0.000000 0.000000 0.000000 -14.915396 8.539288 -5.903882 -37.047260 8.387839 -8.336011 -85.679643 -36.640068 35.487296 0.000000 0.000000 0.000000 4.621478 1.039037 0.505784 42.729127 -8.057435 -8.686796 81.231857 45.418830 43.943955 0.000000 0.000000 0.000000 
-0.051244 0.947319 -0.057489 -6.807788 5.438251 2.685669 11.179745 -0.359562 -4.208018 -8.047943 0.714725 -0.904336 16.425514 28.739355 18.816730 0.000000 0.000000 0.000000 -10.286281 0.202099 -19.091799 3.706294 -0.507400 14.665953 -8.320146 -19.218245 33.106129 0.000000 0.000000 0.000000 -5.308485 -0.104819 21.150036 9.181901 -1.413991 -25.185041 -0.285592 0.883686 29.180254 5.542446 -0.753479 -28.596751 0.000000 0.000000 0.000000 -14.389221 9.315218 -6.153474 -36.673542 9.979523 -8.617099 -84.011360 -34.739094 32.660433 0.000000 0.000000 0.000000 4.905031 -0.242076 -0.035939 42.501841 -9.729526 -9.103958 78.874996 42.395101 39.236937 0.000000 0.000000 0.000000 
-0.049013 0.948109 -0.056169 -6.852624 5.649196 2.241884 11.489717 -0.359256 -4.238138 -8.722043 0.804476 0.079481 16.252225 28.540600 18.745323 0.000000 0.000000 0.000000 -9.811205 0.258526 -19.132030 4.267200 -0.705592 16.906648 -7.730410 -18.468001 31.001193 0.000000 0.000000 0.000000 -5.332921 -0.091634 19.913538 9.807064 -1.720106 -23.735661 -1.036295 -0.144906 28.698260 5.970292 -1.309900 -27.243881 0.000000 0.000000 0.000000 -14.428293 9.305799 -5.998712 -36.365475 11.464637 -8.921383 -82.589245 -35.247752 32.676564 0.000000 0.000000 0.000000 5.652573 -1.169630 -0.482556 41.017698 -10.576431 -9.025372 76.438647 40.534873 35.440491 0.000000 0.000000 0.000000 
-0.049685 0.949604 -0.053341 -7.505166 6.877311 1.764519 12.318189 -0.408800 -3.865337 -8.691970 0.769582 0.039046 15.447891 27.622291 18.405628 0.000000 0.000000 0.000000 -9.941347 0.173017 -17.757773 5.838821 -1.207794 16.878427 -7.750632 -18.281384 30.359550 0.000000 0.000000 0.000000 -4.986520 -0.199802 19.326812 10.995635 -1.958067 -24.298077 -1.346842 -0.826167 29.442052 5.303790 -0.893104 -27.536947 0.000000 0.000000 0.000000 -15.059063 9.543703 -6.253400 -34.884393 11.633297 -8.586909 -82.259425 -33.606939 30.769194 0.000000 0.000000 0.000000 5.339873 -1.873388 -0.762164 41.343661 -12.105317 -9.576128 74.122067 38.595655 32.435862 0.000000 0.000000 0.000000 
-0.053369 0.950440 -0.049058 -7.885112 6.835919 2.013985 12.960410 -0.425055 -3.869687 -8.585827 0.756999 -0.054100 15.459210 27.602390 18.782152 0.000000 0.000000 0.000000 -10.472990 0.105456 -17.414125 6.295429 -1.323870 16.656222 -8.541695 -19.294384 31.128592 0.000000 0.000000 0.000000 -4.821186 -0.173480 17.357381 11.401446 -2.308605 -22.215869 -0.985829 -1.558952 28.853963 4.257231 -0.385748 -27.606486 0.000000 0.000000 0.000000 -14.719227 10.038344 -6.321961 -35.574649 11.852670 -8.807191 -82.160696 -33.265029 30.725137 0.000000 0.000000 0.000000 3.684320 -1.998636 -0.817832 42.249705 -12.810209 -9.929778 74.582583 36.952204 31.054381 0.000000 0.000000 0.000000 
-0.060510 0.951091 -0.044091 -7.717590 7.117968 2.900583 13.107656 -0.447748 -4.393450 -8.223588 0.705663 -0.445719 15.280629 27.361392 19.341904 0.000000 0.000000 0.000000 -11.538472 -0.035537 -16.777447 5.257772 -0.973934 14.641675 -7.693678 -18.158307 30.420500 0.000000 0.000000 0.000000 -4.774454 -0.136541 15.865186 11.741106 -2.288490 -23.036825 -1.106373 -2.700953 29.943188 3.571097 -0.044886 -29.123669 0.000000 0.000000 0.000000 -14.553504 10.365456 -6.284253 -35.627465 11.955438 -8.952120 -82.699723 -33.311986 31.395697 0.000000 0.000000 0.000000 2.529672 -1.570481 -0.643086 43.118530 -12.984558 -10.309881 75.190825 36.347188 30.592634 0.000000 0.000000 0.000000 
-0.071360 0.951190 -0.039332 -7.864718 6.297491 4.031963 14.127425 -0.429436 -5.184063 -8.447362 0.742532 -0.475657 15.801563 27.868684 20.490304 0.000000 0.000000 0.000000 -12.765448 -0.144521 -17.054625 2.934609 -0.322058 11.964714 -7.054703 -17.494851 32.514970 0.000000 0.000000 0.000000 -4.451265 -0.120682 14.684072 12.290778 -2.498778 -22.442546 -1.012629 -1.434093 29.112773 2.805185 0.498179 -28.490871 0.000000 0.000000 0.000000 -13.881511 10.504484 -6.386123 -36.080838 11.574081 -8.871952 -84.581202 -33.234665 31.991704 0.000000 0.000000 0.000000 3.040448 -1.288858 -0.525603 42.844426 -13.110158 -10.176852 76.492240 37.658800 32.717771 0.000000 0.000000 0.000000 
-0.086351 0.948406 -0.034708 -7.290743 6.037789 5.169010 14.523950 -0.417275 -6.018826 -8.459687 0.748291 -0.566748 16.073803 28.157768 20.888341 0.000000 0.000000 0.000000 -13.904353 -0.276089 -17.458194 -0.202102 0.320681 9.070706 -6.556942 -17.003958 35.479130 0.000000 0.000000 0.000000 -4.292980 -0.088955 13.359691 12.569713 -2.498577 -22.852851 -1.555421 -0.722486 30.090705 3.225911 0.431447 -29.569491 0.000000 0.000000 0.000000 -14.061863 10.127990 -6.319501 -36.709088 11.453586 -9.074737 -84.287303 -34.153717 32.570139 0.000000 0.000000 0.000000 4.854579 -0.717607 -0.284611 41.592349 -12.404364 -9.767272 76.802947 40.094983 35.200740 0.000000 0.000000 0.000000 
